<svg
    class="c-card__svg"
    xmlns="http://www.w3.org/2000/svg"
    viewBox="0 0 512 512">
    <linearGradient id="a" gradientUnits="userSpaceOnUse" x1="411" y1="351" x2="411" y2="175" class="gradient-element"><stop offset="0" class="primary-color-gradient" stop-color="#de4313"/><stop offset="1" class="secondary-color-gradient" stop-color="#fec163"/></linearGradient><path fill="url(#a)" d="M451 351h-80V175h80v176z"/><linearGradient id="b" gradientUnits="userSpaceOnUse" x1="16" y1="285.415" x2="496" y2="285.415"><stop offset="0" class="primary-color-gradient" stop-color="#de4313"/><stop offset="1" class="secondary-color-gradient" stop-color="#fec163"/></linearGradient><path fill="url(#b)" d="M496 173.4v312H64c-13.3 0-25.3-5.4-33.9-14.1-8.7-8.6-14.1-20.6-14.1-33.9 0-26.5 21.5-48 48-48h.7v-304H128v304h243.5L411 447l40-64 .5-209.6H496z"/><path d="M496 165.4h-36.5v-54.7c0-4.4-3.6-8-8-8h-80c-4.4 0-8 3.6-8 8V383.1c0 .2 0 .5.1.7v.3c0 .3.1.6.2.8v.1l.3.9c0 .1.1.1.1.2.1.2.2.5.4.7 0 0 0 .1.1.1l32.6 52.2H273.7c-4.4 0-8 3.6-8 8s3.6 8 8 8h137.6c3.2 0 5.9-1.9 7.2-4.5l39.8-63.7s0-.1.1-.1c.1-.2.3-.5.4-.7 0-.1.1-.1.1-.2l.3-.9v-.1c.1-.3.1-.5.2-.8v-.3c0-.2.1-.5.1-.7v-.3-201.4H488v296H64c-10.7 0-20.8-4.2-28.3-11.8-7.6-7.5-11.7-17.5-11.7-28.2 0-22.1 17.9-40 40-40h64c4.4 0 8-3.6 8-8v-208h204c4.4 0 8-3.6 8-8s-3.6-8-8-8H128c-4.4 0-8 3.6-8 8v208H64c-1 0-1.9 0-2.9.1-.3 0-.6.1-1 .1-.6 0-1.3.1-1.9.1-.4 0-.8.1-1.1.1-.6.1-1.1.1-1.7.2-.4.1-.8.1-1.2.2-.5.1-1.1.2-1.6.3l-1.2.3c-.5.1-1 .2-1.5.4l-1.2.3c-.5.1-1 .3-1.4.4-.4.1-.8.3-1.2.4-.5.2-.9.3-1.4.5-.4.1-.8.3-1.2.5-.5.2-.9.4-1.4.5-.4.2-.8.4-1.2.5-.4.2-.9.4-1.3.6l-1.2.6c-.4.2-.8.4-1.3.7-.4.2-.8.4-1.1.7-.4.2-.8.5-1.2.7-.4.2-.7.5-1.1.7-.4.3-.8.5-1.2.8-.4.2-.7.5-1.1.7-.4.3-.8.5-1.2.8-.3.3-.7.5-1 .8-.4.3-.7.6-1.1.9-.3.3-.7.6-1 .8-.4.3-.7.6-1.1.9l-.9.9-1 1-.2.2V133.4c0-22.1 17.9-40 40-40h56v47.3c0 4.4 3.6 8 8 8s8-3.6 8-8V85.4c0-4.4-3.6-8-8-8H64c-30.9 0-56 25.1-56 56v304c0 15 5.8 29.1 16.4 39.6C34.9 487.6 49 493.4 64 493.4h432c4.4 0 8-3.6 8-8v-312c0-4.4-3.6-8-8-8zm-52.5 177.3h-24v-160h24v160zm-64 0v-160h24v160h-24zm0 16h64v16h-64v-16zm0-193.3v-14.7h64v14.7h-64zm0-46.7h64v16h-64v-16zm32 312.9l-25.6-40.9H437l-25.5 40.9zm-90.2-202.5c0 4.4-3.6 8-8 8H175.7c-4.4 0-8-3.6-8-8s3.6-8 8-8h137.6c4.4 0 8 3.6 8 8zm0 40c0 4.4-3.6 8-8 8H175.7c-4.4 0-8-3.6-8-8s3.6-8 8-8h137.6c4.4 0 8 3.6 8 8zm0 40c0 4.4-3.6 8-8 8H175.7c-4.4 0-8-3.6-8-8s3.6-8 8-8h137.6c4.4 0 8 3.6 8 8z"/><path d="M313.3 125.9H175.7c-4.4 0-8-3.6-8-8s3.6-8 8-8h137.6c4.4 0 8 3.6 8 8s-3.6 8-8 8zM169.2 61.3V13.8c0-4.4-3.6-8-8-8s-8 3.6-8 8v47.6c0 4.4 3.6 8 8 8s8-3.7 8-8.1zm192.6.7c0-4.4-3.6-8-8-8H216.2c-4.4 0-8 3.6-8 8s3.6 8 8 8h137.6c4.4 0 8-3.6 8-8zm31.9 0c0-5-4.1-9-9-9s-9 4.1-9 9 4.1 9 9 9 9-4 9-9zm-2 0c0 3.8-3.1 7-7 7s-7-3.1-7-7 3.1-7 7-7 7 3.2 7 7zm32 0c0-5-4.1-9-9-9s-9 4.1-9 9 4.1 9 9 9 9-4 9-9zm-2 0c0 3.8-3.1 7-7 7s-7-3.1-7-7 3.1-7 7-7 7 3.2 7 7zm32 0c0-5-4.1-9-9-9s-9 4.1-9 9 4.1 9 9 9 9-4 9-9zm-2 0c0 3.8-3.1 7-7 7s-7-3.1-7-7 3.1-7 7-7 7 3.2 7 7zm-89.9 0c0-4.4-3.6-8-8-8H216.2c-4.4 0-8 3.6-8 8s3.6 8 8 8h137.6c4.4 0 8-3.6 8-8zm31.9 0c0-5-4.1-9-9-9s-9 4.1-9 9 4.1 9 9 9 9-4 9-9zm30 0c0-5-4.1-9-9-9s-9 4.1-9 9 4.1 9 9 9 9-4 9-9zm30 0c0-5-4.1-9-9-9s-9 4.1-9 9 4.1 9 9 9 9-4 9-9z"/>
</svg>
