<svg
    class="c-card__svg"
    xmlns="http://www.w3.org/2000/svg"
    viewBox="0 0 512 512">
    <linearGradient id="a" gradientUnits="userSpaceOnUse" x1="415.24" y1="265.724" x2="289.254" y2="265.724" class="gradient-element"><stop offset="0" class="primary-color-gradient" stop-color="#de4313"/><stop offset="1" class="secondary-color-gradient" stop-color="#fec163"/></linearGradient><path fill="url(#a)" d="M409 278.5c-6.5 54.7-54 74.2-74.5 80.1 9.3-.1 18.3-1.6 24.9-5.4 22-12.9 0 15.9 0 15.9l-34 13.6-36.6-21.8h2.7l-2.7-8.9s17.5 5.1 36.3 6.4v-201s-3.1-6.6 0-8.3c3.1-1.7 83.9 9.4 83.9 9.4s8.3 49.9 0 120z"/><linearGradient id="b" gradientUnits="userSpaceOnUse" x1="374.93" y1="501.732" x2="374.93" y2="359.231"><stop offset="0" class="primary-color-gradient" stop-color="#de4313"/><stop offset="1" class="secondary-color-gradient" stop-color="#fec163"/></linearGradient><path fill="url(#b)" d="M343.3 483.1H308l11.5-32.5-22.8-21.3 11-19.3-50.4-22.8V352l67.9 30.7 47-21.2 20.9-9.4v29.2c4.8 3 10.5 6 17.3 8.9 47.4 20.7 76.6 34.5 81.8 93H343.3z"/><linearGradient id="c" gradientUnits="userSpaceOnUse" x1="107.136" y1="335.323" x2="107.136" y2="178.548"><stop offset="0" class="primary-color-gradient" stop-color="#de4313"/><stop offset="1" class="secondary-color-gradient" stop-color="#fec163"/></linearGradient><path fill="url(#c)" d="M192.3 178.5H18c-4.4 0-4 3.6-4 8v94.8h112.5l49 53.9v-53.9h24.8v-94.8c0-4.4-3.6-8-8-8z"/><path d="M499.1 452.3c-7.5-19.5-24.4-45.9-62-61.1-14.3-5.8-26.4-11.6-35.8-17.3V352c0-2.7-1.4-5.2-3.7-6.7-2.3-1.5-5.2-1.7-7.6-.6l-3.2 1.4c2.2-1.8 4.3-3.8 6.4-5.9 14.2-14.3 22.3-31.5 26.6-43.3 2.9-8 4.4-16.4 4.4-25V149.7c0-2.6-1.3-5.1-3.5-6.6s-4.9-1.8-7.4-.9c-15.1 5.8-30 2.1-45.7-1.9-20.9-5.2-44.6-11.1-69.7 6.7-3.6 2.6-4.5 7.6-1.9 11.2 2.6 3.6 7.6 4.5 11.2 1.9 19.1-13.6 36.5-9.2 56.6-4.2 14.2 3.6 28.9 7.2 44.5 4.3v111.6c0 6.7-1.1 13.3-3.4 19.5-8 22.1-28.5 59.1-75.5 59.1-46.3 0-67-34.3-75.2-54.7-2.7-6.7-4.1-13.9-4.1-21.3v-114c0-16 9.5-27.6 17.5-34.4 17.8-15.4 45.1-22.5 71-18.6 9 1.3 17.2 3.7 25.2 5.9 19.3 5.5 39.2 11.1 65 .4 4.1-1.7 6-6.4 4.3-10.5s-6.4-6-10.5-4.3c-20.6 8.6-35.5 4.3-54.5-1-8.5-2.4-17.2-4.9-27.2-6.4-30.4-4.6-62.6 4-83.8 22.3-14.9 12.8-23.1 29.3-23.1 46.6v110.2h-58.7c-2.1 0-4.2.9-5.7 2.4s-2.3 3.6-2.3 5.7l.2 36.5-40.5-42c-1.5-1.6-3.6-2.5-5.8-2.5H26.1V130.5h196.5c4.4 0 8-3.6 8-8s-3.6-8-8-8H18.1c-4.4 0-8 3.6-8 8v156.2c0 4.4 3.6 8 8 8h99.7l51.9 54.2c1.5 1.6 3.6 2.5 5.8 2.5 1 0 2-.2 3-.6 3-1.2 5-4.2 5-7.5l-.3-48.6h51.7c.9 5.2 2.2 10.2 4.2 15.1 4.5 11.2 12.9 27.5 27.3 40.8 4.9 4.6 10.2 8.5 15.8 11.8l-21.4-9.7c-2.5-1.1-5.4-.9-7.6.6-2.3 1.5-3.7 4-3.7 6.7v26.9c-7.8 4.1-16.8 8.2-27 12.4-37.6 15.2-54.4 41.6-62 61.1-8.2 21.1-7.4 38.6-7.4 39.4.2 4.3 3.7 7.6 8 7.6h.4c4.4-.2 7.8-4 7.6-8.4 0-.6-2.2-60 59.4-84.9 9.5-3.8 18.1-7.7 25.7-11.6h.1l42.4 19.1-6.7 11.7c-1.8 3.2-1.2 7.3 1.5 9.8l18.9 17.7-9.8 27.6c-.3.9-.5 1.9-.5 2.8H187.3c-4.4 0-8 3.6-8 8s3.6 8 8 8h311.2c4.3 0 7.8-3.3 8-7.6 0-.7.8-18.2-7.4-39.3zm-157.9-50.4h-7.8v-14.1l51.9-23.4V382l-44.1 19.9zm-12.1-35.4c5.2 0 10.2-.4 15.1-1.1l-18.8 8.5-26.6-12c9.4 3 19.5 4.6 30.3 4.6zm-63.6-2.2l51.9 23.4v14.1h-7.8L265.5 382v-17.7zm47 53.6h25.7l5.6 9.8-18 16.8-.5.4-18.4-17.3 5.6-9.7zm11.1 45.8c.3.1.5.1.8.1h1.3c.3 0 .5 0 .8-.1h.2c.3-.1.6-.1 1-.2l4.2 11.5h-12.5l4-11.4c.1.1.2.1.2.1zm27.7 19.6c0-1-.1-2-.5-2.9l-10.2-27.7 18.7-17.5c2.7-2.5 3.3-6.6 1.5-9.8l-6.7-11.7 42.4-19.1c1.4-.6 2.6-1.7 3.4-2.9 8.9 4.8 19.3 9.7 31.2 14.5 25.7 10.4 43.4 27.7 52.8 51.4 4.1 10.3 5.6 19.6 6.2 25.8H351.3zM194.5 242.5c0 4.4-3.6 8-8 8H48.9c-4.4 0-8-3.6-8-8s3.6-8 8-8h137.6c4.4 0 8 3.6 8 8zm0-40c0 4.4-3.6 8-8 8H48.9c-4.4 0-8-3.6-8-8s3.6-8 8-8h137.6c4.4 0 8 3.6 8 8zm0-40c0 4.4-3.6 8-8 8H48.9c-4.4 0-8-3.6-8-8s3.6-8 8-8h137.6c4.4 0 8 3.6 8 8z"/><g><path fill="#DE4313" class="primary-color" d="M416.8 33.3V18.7h14.6v14.6h-14.6zM291.4 33.3V18.7h101.8v14.6H291.4z"/></g><path d="M44.3 421.3c-4.4 0-8-3.6-8-8s3.6-8 8-8c11.4 0 20.8-9.3 20.8-20.8 0-4.4 3.6-8 8-8s8 3.6 8 8c-.1 20.3-16.6 36.8-36.8 36.8zm86.7-8c0-4.4-3.6-8-8-8-11.4 0-20.8-9.3-20.8-20.8 0-4.4-3.6-8-8-8s-8 3.6-8 8c0 20.3 16.5 36.8 36.8 36.8 4.4 0 8-3.6 8-8zm-28.7 50c0-11.4 9.3-20.8 20.8-20.8 4.4 0 8-3.6 8-8s-3.6-8-8-8c-20.3 0-36.8 16.5-36.8 36.8 0 4.4 3.6 8 8 8s8-3.6 8-8zm-21.3 0c0-20.3-16.5-36.8-36.8-36.8-4.4 0-8 3.6-8 8s3.6 8 8 8c11.4 0 20.8 9.3 20.8 20.8 0 4.4 3.6 8 8 8s8-3.6 8-8zm402-326.1c0-5-4.1-9-9-9s-9 4.1-9 9 4.1 9 9 9 9-4 9-9zm0 30c0-5-4.1-9-9-9s-9 4.1-9 9 4.1 9 9 9 9-4 9-9zm0 30c0-5-4.1-9-9-9s-9 4.1-9 9 4.1 9 9 9 9-4 9-9zm-1-90.9V18.7c0-4.4-3.6-8-8-8s-8 3.6-8 8v87.6c0 4.4 3.6 8 8 8s8-3.6 8-8zm0 207.9v-87.6c0-4.4-3.6-8-8-8s-8 3.6-8 8v87.6c0 4.4 3.6 8 8 8s8-3.6 8-8zM254.7 67.8c0-4.4-3.6-8-8-8h-89.9c-4.4 0-8 3.6-8 8s3.6 8 8 8h89.9c4.4 0 8-3.6 8-8zm-74.3-32c0-4.4-3.6-8-8-8H113c-4.4 0-8 3.6-8 8s3.6 8 8 8h59.5c4.4 0 7.9-3.5 7.9-8zm-127.6 32c0-4.4-3.6-8-8-8H21c-4.4 0-8 3.6-8 8s3.6 8 8 8h23.8c4.4 0 8-3.6 8-8zM40.9 79.7V55.9c0-4.4-3.6-8-8-8s-8 3.6-8 8v23.8c0 4.4 3.6 8 8 8s8-3.6 8-8z"/>
</svg>
