<svg 
    class="o-svg o-svg--logo"
    data-name="svg-logo-acilia"
    role="img"
    xmlns="http://www.w3.org/2000/svg"
    viewBox="0 0 139.26 42.55">
    <title>"Acilia logo" .icon</title>
    <defs>
        <linearGradient 
            id="logo-acilia-linear-gradient" 
            x1="97.15" 
            y1="12.2" 
            x2="113.06" 
            y2="39.9" 
            gradientUnits="userSpaceOnUse">
            <stop offset="0" stop-color="#eb6608"/>
            <stop offset="1" stop-color="#dd4b0d"/>
        </linearGradient>
        <linearGradient 
            id="logo-acilia-linear-gradient-2" 
            x1="125.76" 
            y1="34.11" 
            x2="118.27" 
            y2="37.14" 
            gradientUnits="userSpaceOnUse">
            <stop offset="0" stop-color="#f08307"/>
            <stop offset=".77" stop-color="#ec6d05"/>
            <stop offset=".93" stop-color="#ea6906"/>
            <stop offset="1" stop-color="#e86507"/>
        </linearGradient>
        <linearGradient 
            id="logo-acilia-linear-gradient-3" 
            x1="119.11" 
            y1="22.84" 
            x2="112.6" 
            y2="25.48" 
            xlink:href="#logo-acilia-linear-gradient-2"/>
        <linearGradient 
            id="logo-acilia-linear-gradient-4" 
            x1="129.4" 
            y1="27.95" 
            x2="122.13" y2="19.52" 
            gradientUnits="userSpaceOnUse">
            <stop offset="0" stop-color="#e95a0c"/>
            <stop offset="1" stop-color="#dd4b0d"/>
        </linearGradient>
        <linearGradient 
            id="logo-acilia-linear-gradient-5" 
            x1="137.19" 
            y1="22.12" 
            x2="130.05" 
            y2="24.33" 
            gradientUnits="userSpaceOnUse">
            <stop offset="0" stop-color="#f08307"/>
            <stop offset=".39" stop-color="#ee7906"/>
            <stop offset=".71" stop-color="#ec6d05"/>
            <stop offset="1" stop-color="#e76009"/>
        </linearGradient>
        <linearGradient 
            id="logo-acilia-linear-gradient-6" 
            x1="129.11" 
            y1="36.16" 
            x2="129.68" 
            y2="36.16" 
            gradientUnits="userSpaceOnUse">
            <stop offset="0" stop-color="#f08315"/>
            <stop offset=".35" stop-color="#ee790e"/>
            <stop offset=".65" stop-color="#ec6d05"/>
            <stop offset=".84" stop-color="#ea6906"/>
            <stop offset="1" stop-color="#e66009"/>
        </linearGradient>
    </defs>
    <path 
        fill="#000000"
        d="M12.52 36.24a.47.47 0 01-.47-.47v-.24c0-.26-.19-.37-.43-.26a14.53 14.53 0 01-5.3 1.42C2.92 36.69 1 35 1 31.5c-.18-4.87 2.52-6.2 8.84-6.11h1.22a.47.47 0 00.47-.47c-.08-2.18.24-3-3.34-3.11-.67 0-1.27 0-2 .06l-.19.9a.62.62 0 01-.57.46H2.81a.48.48 0 01-.47-.47v-3.61a.64.64 0 01.46-.59 29.13 29.13 0 016.54-1c5.67 0 7.77 1.81 7.77 6.81v7.16a.53.53 0 00.46.52l.5.06a.54.54 0 01.47.52v3.1a.47.47 0 01-.47.47zm-.76-7.51a.47.47 0 00-.47-.47h-.9c-1.88 0-4.73-.05-4 3.42a1.81 1.81 0 002.08 1.46 14.36 14.36 0 002.77-.63 1 1 0 00.55-.72zM82.25 36.24a.47.47 0 01-.47-.47v-.24a.27.27 0 00-.42-.26 14.61 14.61 0 01-5.31 1.42c-3.4 0-5.31-1.72-5.31-5.19-.18-4.87 2.52-6.2 8.84-6.11h1.22a.47.47 0 00.47-.47c-.07-2.18.24-3-3.34-3.11-.67 0-1.27 0-2 .06l-.22.94a.61.61 0 01-.57.46h-2.59a.47.47 0 01-.47-.47v-3.65a.63.63 0 01.45-.59 29.13 29.13 0 016.54-1c5.67 0 7.77 1.81 7.77 6.81v7.16a.53.53 0 00.46.52l.5.06a.54.54 0 01.47.52v3.1a.47.47 0 01-.47.47zm-.76-7.51a.47.47 0 00-.47-.47h-.9c-1.88 0-4.73-.05-4 3.42a1.81 1.81 0 002.08 1.46 14.36 14.36 0 002.77-.63 1 1 0 00.55-.72zM29 36.69c-5.56 0-8.11-2.9-8.11-8.56V26.6c0-.26.06-9 8.11-9a23.27 23.27 0 016 .7v4.62a.47.47 0 01-.47.47h-2.5a.6.6 0 01-.56-.46l-.1-.48a.66.66 0 00-.56-.49h-.93c-2.29 0-3.5.7-3.5 4.19 0 0-.34 6.27 3.59 6.27 1.08 0 2.64-.09 5-.25V36a24 24 0 01-5.97.69zM38.31 36.24a.48.48 0 01-.47-.47v-3.13a.52.52 0 01.47-.51l.53-.05a.52.52 0 00.47-.51v-8.86a.54.54 0 00-.47-.52l-.53-.05a.55.55 0 01-.47-.53v-3.1a.48.48 0 01.47-.47h6.06a.47.47 0 01.47.47v13.06a.52.52 0 00.47.51l.53.05a.53.53 0 01.47.51v3.13a.48.48 0 01-.48.47zm1.34-20.61a.48.48 0 01-.47-.47V11.9a.47.47 0 01.47-.47h4.85a.47.47 0 01.47.47v3.26a.48.48 0 01-.47.47zM49.32 36.24a.47.47 0 01-.47-.47v-3.1a.54.54 0 01.47-.52l.53-.06a.54.54 0 00.46-.52V16.1a.53.53 0 00-.46-.52l-.53-.06a.54.54 0 01-.47-.52v-3.1a.47.47 0 01.47-.47h6.06a.47.47 0 01.47.47v19.67a.54.54 0 00.47.52l.52.06a.54.54 0 01.47.52v3.1a.47.47 0 01-.47.47zM60.33 36.24a.47.47 0 01-.47-.47v-3.13a.52.52 0 01.46-.51l.53-.05a.52.52 0 00.47-.51v-8.86a.54.54 0 00-.47-.52l-.53-.05a.55.55 0 01-.46-.53v-3.1a.47.47 0 01.47-.47h6a.47.47 0 01.47.47v13.06a.53.53 0 00.47.51l.53.05a.52.52 0 01.47.51v3.13a.47.47 0 01-.47.47zm1.33-20.61a.48.48 0 01-.47-.47V11.9a.47.47 0 01.47-.47h4.85a.47.47 0 01.47.47v3.26a.48.48 0 01-.47.47z" 
        transform="translate(-1 -.45)"/>
    <path 
        d="M87.77 3.66A2.29 2.29 0 0190.08.45H101a4.86 4.86 0 014.37 3.23l11 36.09A2.36 2.36 0 01114 43h-9.7a5 5 0 01-4.45-3.21z" 
        transform="translate(-1 -.45)" 
        fill="url(#logo-acilia-linear-gradient)"/>
    <path 
        d="M104.24 43h.06a4.19 4.19 0 01-.85-.1 3.28 3.28 0 00.79.1z" 
        transform="translate(-1 -.45)" 
        fill="url(#logo-acilia-linear-gradient-2)"/>
    <path 
        d="M125.24 6.38h-10.15a5 5 0 00-4.41 3.22l-1.22 4.19a2.73 2.73 0 000 1.81c.16.59 4.12 14.86 4.12 14.86l2.83 9.31A2.36 2.36 0 01114 43a5 5 0 004.44-3.21l9.14-30.2a2.3 2.3 0 00-2.34-3.21z" 
        transform="translate(-1 -.45)" 
        fill="url(#logo-acilia-linear-gradient-3)"/>
    <path 
        d="M132.15 32.82L129 9.75a3.83 3.83 0 00-3.37-3.35 2.27 2.27 0 012 3.19l-3.89 12.85s-3.5 12.81-3.63 13.35a1.57 1.57 0 001 .39h8.1a3 3 0 002.94-3.36z" 
        transform="translate(-1 -.45)" 
        fill="url(#logo-acilia-linear-gradient-4)"/>
    <path 
        d="M137.86 12.66h-8l1.56 14.71.75 5.45a3 3 0 01-2.47 3.31 5.28 5.28 0 004-3.12l6.39-17.18a2.2 2.2 0 00-2.23-3.17z" 
        transform="translate(-1 -.45)" 
        fill="url(#logo-acilia-linear-gradient-5)"/>
    <path 
        d="M129.68 36.13a3.66 3.66 0 01-.57 0 3.45 3.45 0 00.57 0z" 
        transform="translate(-1 -.45)" 
        fill="url(#logo-acilia-linear-gradient-6)"/>
    <path 
        fill="#caba9f" 
        d="M104.24 43h.06a4.19 4.19 0 01-.85-.1 3.28 3.28 0 00.79.1zM125.24 6.38h.35z" 
        transform="translate(-1 -.45)"/>
</svg>
