<svg xmlns="http://www.w3.org/2000/svg"
xmlns:xlink="http://www.w3.org/1999/xlink"
viewBox="0 0 159.67 48.79">
<defs/><defs><linearGradient id="linear-gradient" x1="110.24" x2="128.48" y1="13.48" y2="45.23" gradientUnits="userSpaceOnUse"><stop offset="0" stop-color="#ec6608"/><stop offset="1" stop-color="#de4b0d"/></linearGradient><linearGradient id="linear-gradient-2" x1="143.04" x2="134.46" y1="38.59" y2="42.06" gradientUnits="userSpaceOnUse"><stop offset="0" stop-color="#f18407"/><stop offset=".77" stop-color="#ed6d05"/><stop offset=".93" stop-color="#eb6906"/><stop offset="1" stop-color="#e96507"/></linearGradient><linearGradient id="linear-gradient-3" x1="135.42" x2="127.95" y1="25.67" y2="28.69" xlink:href="#linear-gradient-2"/><linearGradient id="linear-gradient-4" x1="147.22" x2="138.88" y1="31.53" y2="21.87" gradientUnits="userSpaceOnUse"><stop offset="0" stop-color="#ea5b0c"/><stop offset="1" stop-color="#de4b0d"/></linearGradient><linearGradient id="linear-gradient-5" x1="156.15" x2="147.97" y1="24.85" y2="27.38" gradientUnits="userSpaceOnUse"><stop offset="0" stop-color="#f18407"/><stop offset=".37" stop-color="#ef7a06"/><stop offset=".71" stop-color="#ed6d05"/><stop offset="1" stop-color="#e86109"/></linearGradient><linearGradient id="linear-gradient-6" x1="146.89" x2="147.53" y1="40.94" y2="40.94" gradientUnits="userSpaceOnUse"><stop offset="0" stop-color="#f18416"/><stop offset=".34" stop-color="#ef7a0f"/><stop offset=".65" stop-color="#ed6d05"/><stop offset=".84" stop-color="#eb6906"/><stop offset="1" stop-color="#e66009"/></linearGradient></defs><g id="Capa_2" data-name="Capa 2"><g id="Layer_1" data-name="Layer 1"><path d="M13.21 41a.54.54 0 01-.54-.54v-.27a.32.32 0 00-.49-.31 16.71 16.71 0 01-6.08 1.67c-3.9 0-6.09-2-6.09-5.95-.2-5.58 2.89-7.1 10.14-7h1.39a.54.54 0 00.54-.54c-.08-2.5.28-3.47-3.83-3.57-.76 0-1.46 0-2.26.07l-.24 1.08a.72.72 0 01-.66.53h-3a.54.54 0 01-.54-.54v-4.19a.74.74 0 01.52-.68 33.43 33.43 0 017.51-1.1c6.49 0 8.9 2.08 8.9 7.81v8.21a.61.61 0 00.53.6l.57.06a.63.63 0 01.54.6v3.56a.55.55 0 01-.54.54zm-.87-8.62a.54.54 0 00-.54-.54h-1c-2.15.06-5.42-.06-4.61 3.93a2.07 2.07 0 002.38 1.67 16.13 16.13 0 003.17-.72 1.17 1.17 0 00.64-.82zM93.16 41a.54.54 0 01-.54-.54v-.27a.32.32 0 00-.49-.31 16.71 16.71 0 01-6.08 1.63c-3.9 0-6.09-2-6.09-5.95-.2-5.58 2.89-7.1 10.14-7h1.39a.54.54 0 00.54-.54c-.08-2.5.28-3.47-3.83-3.57-.76 0-1.46 0-2.26.07l-.24 1.08a.72.72 0 01-.66.53H82a.54.54 0 01-.54-.54v-4.15a.75.75 0 01.52-.68 33.55 33.55 0 017.51-1.1c6.49 0 8.9 2.08 8.9 7.81v8.21a.61.61 0 00.53.6l.57.06a.63.63 0 01.54.6v3.56a.55.55 0 01-.54.54zm-.87-8.62a.54.54 0 00-.54-.54h-1c-2.15.06-5.42-.06-4.61 3.93a2.07 2.07 0 002.38 1.67 16.13 16.13 0 003.17-.72 1.17 1.17 0 00.64-.82zM32.14 41.55c-6.38 0-9.3-3.32-9.3-9.82V30c0-.3.07-10.32 9.3-10.32a27 27 0 016.93.8v5.3a.54.54 0 01-.54.54h-2.86a.7.7 0 01-.65-.53l-.11-.55a.75.75 0 00-.64-.56H33.2c-2.63 0-4 .8-4 4.82 0 0-.39 7.18 4.12 7.18 1.24 0 3-.11 5.76-.29v4.42a27.6 27.6 0 01-6.94.74zM42.78 41a.55.55 0 01-.54-.54v-3.55a.6.6 0 01.54-.59h.6a.6.6 0 00.54-.59v-10.2a.61.61 0 00-.54-.6l-.6-.07a.61.61 0 01-.54-.59v-3.56a.54.54 0 01.54-.54h6.95a.54.54 0 01.54.54v15a.6.6 0 00.54.59h.6a.61.61 0 01.54.59v3.61a.55.55 0 01-.54.54zm1.53-23.6a.54.54 0 01-.54-.54v-3.74a.54.54 0 01.54-.53h5.56a.54.54 0 01.54.53v3.74a.54.54 0 01-.54.54zM55.4 41a.54.54 0 01-.54-.54v-3.52a.61.61 0 01.54-.59l.6-.07a.61.61 0 00.54-.6V17.94a.61.61 0 00-.54-.6l-.6-.07a.6.6 0 01-.54-.59v-3.56a.54.54 0 01.54-.53h7a.54.54 0 01.54.53v22.56a.61.61 0 00.53.6l.61.07a.61.61 0 01.53.59v3.56a.54.54 0 01-.61.5zM68 41a.54.54 0 01-.54-.54v-3.55a.6.6 0 01.54-.59h.6a.6.6 0 00.54-.59v-10.2a.61.61 0 00-.54-.6l-.6-.07a.61.61 0 01-.54-.59v-3.56a.54.54 0 01.54-.54h7a.54.54 0 01.54.54v15a.6.6 0 00.53.59h.61a.6.6 0 01.53.59v3.61a.54.54 0 01-.54.54zm1.55-23.6a.54.54 0 01-.54-.54v-3.74a.54.54 0 01.54-.53h5.56a.54.54 0 01.54.53v3.74a.54.54 0 01-.54.54z" class="cls-1"/><path fill="url(#linear-gradient)" d="M99.49 3.67A2.62 2.62 0 01102.14 0h12.53a5.57 5.57 0 015 3.71l12.6 41.37a2.72 2.72 0 01-2.75 3.71h-11.08a5.76 5.76 0 01-5.1-3.68z"/><path fill="url(#linear-gradient-2)" d="M118.36 48.79h.08a4.6 4.6 0 01-1-.12 3.61 3.61 0 00.92.12z"/><path fill="url(#linear-gradient-3)" d="M142.45 6.8h-11.64a5.66 5.66 0 00-5 3.69s-1.26 4.3-1.4 4.8a3.14 3.14 0 00-.07 2.08l4.73 17 3.25 10.68a2.72 2.72 0 01-2.75 3.71 5.76 5.76 0 005.1-3.68l10.48-34.63a2.64 2.64 0 00-2.7-3.65z"/><path fill="url(#linear-gradient-4)" d="M150.38 37.11l-3.67-26.45a4.41 4.41 0 00-3.86-3.84 2.6 2.6 0 012.26 3.66l-4.46 14.73s-4 14.69-4.17 15.3a1.77 1.77 0 001.12.46h9.29a3.45 3.45 0 003.49-3.86z"/><path fill="url(#linear-gradient-5)" d="M156.92 14h-9.2l1.79 16.87.87 6.24a3.43 3.43 0 01-2.85 3.8 6 6 0 004.58-3.58l7.33-19.7a2.52 2.52 0 00-2.52-3.63z"/><path fill="url(#linear-gradient-6)" d="M147.53 40.91a4.62 4.62 0 01-.64.06 4.34 4.34 0 00.64-.06z"/><path d="M118.36 48.79h.08a4.6 4.6 0 01-1-.12 3.61 3.61 0 00.92.12zM142.45 6.8h.4z" class="cls-8"/></g></g></svg>
